    <svg xmlns="http://www.w3.org/2000/svg" width="99" height="80" viewBox="0 0 99 80">
        <g fill="#fff" fillRule="nonzero">
            <path d="M0 76.337h98.462v3.517H0zM12.578 65.919l14.938-14.937a5.188 5.188 0 0 0 1.417-4.706l3.476-3.48c7.847 5.877 19.055 5.253 26.186-1.878 7.817-7.817 7.817-20.539 0-28.356-7.819-7.818-20.54-7.818-28.358 0-7.13 7.13-7.755 18.336-1.878 26.185l-3.478 3.477a5.195 5.195 0 0 0-4.707 1.416L5.236 58.576a5.192 5.192 0 1 0 7.343 7.343zm21.71-49.305c5.584-5.584 14.671-5.584 20.256 0 5.584 5.584 5.582 14.671 0 20.255-5.585 5.584-14.672 5.584-20.256 0-5.586-5.586-5.586-14.67 0-20.255zM83.611.147h7.619v73.846h-7.619zM75.406 12.197h-7.62v8.883c.49 1.938.773 3.944.773 5.997 0 2.054-.28 4.06-.773 5.998v40.919h7.62V12.197zM51.258 73.993h7.619v-27.6a23.882 23.882 0 0 1-7.619 3.844v23.756z" />
            <path d="M34.086 73.993h7.62v-22.93a23.885 23.885 0 0 1-4.055-.807h-3.565v23.737zM16.679 73.993h7.617v-11.87h-1.784l-5.833 5.834z" />
        </g>
    </svg>
