    <svg xmlns="http://www.w3.org/2000/svg" width="80" height="80" viewBox="0 0 80 80">
        <defs>
            <path id="a" d="M0 .45h34.415v34.42H0z" />
            <path id="b" d="M0 .075h34.415v34.42H0z" />
        </defs>
        <g fill="#FEFEFE" fillRule="evenodd">
            <path d="M45.125 35.154h14.258a19.878 19.878 0 0 0-14.258-14.258v14.258zM45.125 45.13v14.253a19.871 19.871 0 0 0 14.258-14.254H45.125zM35.15 35.154V20.896a19.86 19.86 0 0 0-14.26 14.258h14.26zM35.15 45.13H20.89a19.854 19.854 0 0 0 14.26 14.253V45.129zM45.125 10.716c12.496 2.116 22.319 11.94 24.437 24.438h9.987A39.678 39.678 0 0 0 45.125.734v9.982zM10.712 35.154c2.115-12.5 11.938-22.322 24.437-24.437V.734A39.67 39.67 0 0 0 .734 35.154h9.978zM35.15 69.562c-12.498-2.116-22.32-11.93-24.438-24.433H.734a39.664 39.664 0 0 0 34.415 34.42v-9.987zM69.562 45.13c-2.116 12.501-11.94 22.316-24.438 24.432v9.987c18.012-2.27 32.144-16.413 34.425-34.42h-9.987z" />
        </g>
    </svg>
