    <svg xmlns="http://www.w3.org/2000/svg" width="70" height="80" viewBox="0 0 70 80">
        <g fill=" #fff" fillRule="nonzero">
            <path d="M63.11 40a146.715 146.715 0 0 0-3.555-.653 25.897 25.897 0 0 1 1.86 9.687c0 14.585-11.923 26.449-26.58 26.449-14.655 0-26.577-11.864-26.577-26.449 0-3.429.656-6.694 1.86-9.687A31.85 31.85 0 0 0 6.561 40c-.492.109-.93.218-1.367.327a30.762 30.762 0 0 0-1.258 8.707c0 17.034 13.836 30.803 30.954 30.803 17.117 0 30.953-13.769 30.953-30.803a30.48 30.48 0 0 0-1.258-8.707c-.492-.11-.984-.218-1.477-.327z" />
            <path d="M68.305 35.156s-3.664-2.285-6.016-13.605c-1.75-8.109-7.273-12.626-11.758-14.857v7.456a1.094 1.094 0 0 1-2.187 0V5.769a21.425 21.425 0 0 0-2.352-.708c-.765-.163-1.367-.326-1.86-.435V15.02l8.15 5.007c.6.381.765 1.143.437 1.742-.219.38-.657.598-1.094.598-.219 0-.438-.054-.656-.163l-8.75-5.388c-.383-.217-.602-.653-.602-1.088V0H28.11v15.728c0 .435-.218.816-.601 1.088l-8.75 5.388a1.462 1.462 0 0 1-.656.163c-.438 0-.82-.217-1.094-.598-.383-.599-.164-1.36.437-1.742l8.149-5.007V4.626c-.492.109-1.094.218-1.86.435-.656.163-1.53.381-2.406.708v8.38a1.094 1.094 0 0 1-2.187 0v-7.4C14.6 8.978 9.133 13.441 7.438 21.55 5.03 32.871 1.421 35.156 1.421 35.156a46.51 46.51 0 0 0-1.422.49l.82 3.81c1.368-.653 3.172-1.143 5.196-1.578h.109c1.586-.327 3.336-.654 5.086-.871 9.351-1.252 20.672-1.36 23.133-1.36h.984c2.461 0 13.781.054 23.188 1.36 1.804.217 3.5.544 5.086.87h.109c2.023.436 3.828.98 5.195 1.579l.82-3.81c0 .055-.437-.163-1.421-.49z" />
        </g>
    </svg>
